<?xml version="1.0" encoding="utf-8"?>
<svg class="logo__image" version="1.1" id="Layer_1" xmlns="http://www.w3.org/2000/svg"  x="0px" y="0px"
	 width="100px" height="100px" viewBox="0 0 100 100" enable-background="new 0 0 100 100" xml:space="preserve"><g>
<path fill="#979797" d="M54.594,89.198h-9.188V99h9.188V89.198z M45.406,10.8h9.188V1h-9.188V10.8z M54.594,54.9h-9.188V45.1h9.188
	V54.9z M99,66.076c-3.535-8.298-11.476-9.508-16.446-12.966c-2.379-1.655-3.343-4.979-3.718-7.753
	c-2.347,0.259-6.245,0.297-8.106-4.755c-1.465-3.973-0.858-10.553-5.756-16.13c-4.458-5.07-9.942-6.741-14.972-6.365
	c6.166,4.397,3.734,11.028-0.743,11.028c-6.232,0-7.977-8.007-17.097-8.007c-2.087,0-3.924,0.696-5.071,1.504
	c5.108,0.688,6.33,5.156,7.927,9.201c1.269,3.213,3.537,5.084,6.859,6.066c-0.599,0.366-2.033,0.818-3.887,0.818
	c-4.03,0-6.835-2.26-9.72-5.431c-2.539-2.79-5.372-5.435-10.119-5.435c-2.337,0-4.125,0.789-4.745,1.234
	c2.607,0.438,6.458,2.095,6.458,5.035c0,2.516-2.608,3.478-4.745,1.071c-2.378-2.68-5.718-4.706-9.538-4.706
	c-1.888,0-3.777,0.642-4.581,1.477c4.529,0.556,7.213,3.658,10.018,10.576c1.584,3.905,3.835,7.595,9.512,7.666
	c2.583,0.032,6.25-1.278,8.403,0.925c2.036,2.084,1.353,4.821,2.285,7.041c1.173,2.786,3.603,4.222,8.357,4.488
	c-3.943,3.521-13.37,1.407-16.58-2.187c0.422,9,7.08,17.078,20.296,13.28c2.297-0.659,3.938-0.286,4.82,2.192
	c1.214,3.402,4.089,3.969,6.807,3.609c6.212-0.819,9.896,0.514,13.475,5.069c0.779-7.538-4.273-11.969-7.445-14.085
	c-3.023-2.018-3.318-4.115-3.354-5.737c2.186,2.667,5.036,3.804,8.004,4.245c5.126,0.771,8.802,2.296,10.747,5.228
	c0.564-8.288-7.591-10.161-8.591-13.646c2.566,1.786,4.456,2.435,7.128,2.219c3.566-0.286,7.9-3.272,11.099,2.569
	C90.061,62.59,95.41,63.598,99,66.076"/>
</g></svg>